<svg width="45" height="42" viewBox="0 0 45 42" fill="none" xmlns="http://www.w3.org/2000/svg">
<path d="M7.40628 41.1013C7.42219 41.1017 7.43786 41.1048 7.45238 41.1105C7.46689 41.1162 7.47995 41.1244 7.4908 41.1345L7.70892 41.343C7.53961 41.5117 7.33035 41.6467 7.09546 41.7386C6.82039 41.839 6.52394 41.8874 6.22572 41.8808C5.94548 41.8858 5.66705 41.8406 5.40777 41.7481C5.17389 41.6631 4.96376 41.5355 4.79159 41.3738C4.61588 41.2061 4.48054 41.0095 4.39353 40.7957C4.29824 40.5573 4.25119 40.3064 4.25448 40.0541C4.25061 39.8002 4.30147 39.5478 4.40443 39.3102C4.49968 39.095 4.64335 38.8984 4.82704 38.7321C5.01321 38.5689 5.23592 38.4407 5.48139 38.3554C5.74992 38.2649 6.03588 38.2199 6.32387 38.2227C6.59138 38.217 6.85747 38.2581 7.10637 38.3435C7.32231 38.4249 7.52058 38.5379 7.69256 38.6776L7.50988 38.9003C7.49726 38.916 7.48158 38.9296 7.46353 38.9406C7.44198 38.9534 7.41593 38.9593 7.38992 38.9571C7.36162 38.9554 7.33434 38.9473 7.31085 38.9335L7.2127 38.8742L7.07637 38.7984C7.01753 38.7703 6.95649 38.7457 6.8937 38.725C6.81283 38.6998 6.72989 38.68 6.64559 38.6657C6.5386 38.6486 6.42992 38.6407 6.32114 38.642C6.11376 38.6398 5.90796 38.6736 5.71587 38.7415C5.53672 38.8045 5.37501 38.8998 5.24146 39.0211C5.10551 39.1502 5.00074 39.3016 4.93337 39.4665C4.85658 39.6551 4.81874 39.8541 4.82158 40.0541C4.81831 40.2573 4.85615 40.4594 4.93337 40.6511C4.9999 40.8146 5.10272 40.9652 5.23601 41.0942C5.36088 41.2145 5.51567 41.3085 5.6886 41.369C5.86657 41.4331 6.0576 41.4654 6.25025 41.4638C6.36154 41.4653 6.47278 41.4589 6.58288 41.4448C6.76267 41.4258 6.93513 41.3715 7.08728 41.2861C7.16359 41.2424 7.23563 41.1932 7.30267 41.1392C7.3307 41.116 7.36756 41.1025 7.40628 41.1013V41.1013Z" fill="#AFB1B8"/>
<path d="M13.7044 40.0537C13.7078 40.3051 13.6579 40.5548 13.5571 40.7905C13.4683 41.0042 13.3283 41.1992 13.1465 41.3625C12.9646 41.5259 12.745 41.6539 12.502 41.7381C11.9682 41.915 11.3781 41.915 10.8443 41.7381C10.603 41.6526 10.3848 41.5243 10.2036 41.3614C10.0219 41.1951 9.88089 40.9984 9.78921 40.7834C9.59281 40.3062 9.59281 39.7846 9.78921 39.3074C9.88222 39.0922 10.023 38.895 10.2036 38.727C10.3863 38.5693 10.6044 38.4459 10.8443 38.3646C11.3775 38.1845 11.9689 38.1845 12.502 38.3646C12.7442 38.45 12.9633 38.5783 13.1455 38.7412C13.325 38.9059 13.4649 39.1 13.5571 39.3122C13.6582 39.5494 13.7081 39.8008 13.7044 40.0537ZM13.1318 40.0537C13.1361 39.8526 13.1011 39.6523 13.0282 39.4614C12.9671 39.2979 12.8678 39.1471 12.7365 39.0184C12.6087 38.8967 12.4513 38.8012 12.2757 38.7389C11.8879 38.6093 11.4585 38.6093 11.0706 38.7389C10.8951 38.8012 10.7377 38.8967 10.6099 39.0184C10.4767 39.1463 10.3764 39.2973 10.3154 39.4614C10.1767 39.8471 10.1767 40.2603 10.3154 40.646C10.377 40.8098 10.4773 40.9607 10.6099 41.089C10.7379 41.2099 10.8953 41.3046 11.0706 41.3661C11.4592 41.4924 11.8872 41.4924 12.2757 41.3661C12.4511 41.3046 12.6085 41.2099 12.7365 41.089C12.8672 40.96 12.9665 40.8093 13.0282 40.646C13.1014 40.4551 13.1364 40.2548 13.1318 40.0537V40.0537Z" fill="#AFB1B8"/>
<path d="M18.0013 40.6748L18.0586 40.8075C18.0804 40.7601 18.0995 40.7175 18.1213 40.6748C18.1421 40.6303 18.1657 40.5868 18.1922 40.5445L19.5854 38.344C19.6127 38.3061 19.6372 38.2824 19.6645 38.2753C19.7015 38.2655 19.7403 38.2615 19.779 38.2634H20.1907V41.8426H19.7026V39.2109C19.7026 39.1778 19.7026 39.1399 19.7026 39.0996C19.7 39.0586 19.7 39.0175 19.7026 38.9764L18.3012 41.2078C18.2834 41.2412 18.255 41.2695 18.2192 41.2892C18.1834 41.309 18.1418 41.3194 18.0995 41.3191H18.0204C17.9779 41.3196 17.9362 41.3094 17.9004 41.2896C17.8646 41.2698 17.8362 41.2414 17.8186 41.2078L16.3763 38.9622C16.3763 39.0049 16.3763 39.0475 16.3763 39.0901C16.3763 39.1328 16.3763 39.1707 16.3763 39.2038V41.8355H15.9047V38.2634H16.3164C16.355 38.2615 16.3938 38.2655 16.4309 38.2753C16.4647 38.2898 16.4916 38.3141 16.5072 38.344L17.9304 40.5469C17.9584 40.5876 17.9821 40.6304 18.0013 40.6748V40.6748Z" fill="#AFB1B8"/>
<path d="M23.2443 40.497V41.8377H22.699V38.2633H23.915C24.1446 38.2595 24.3735 38.2858 24.5939 38.3415C24.7704 38.3849 24.9341 38.4609 25.0738 38.5641C25.1949 38.6609 25.2883 38.781 25.3464 38.9147C25.4108 39.0605 25.4423 39.2157 25.4391 39.3719C25.4415 39.5286 25.4072 39.6841 25.3383 39.829C25.2727 39.9661 25.172 40.0885 25.0438 40.1867C24.9039 40.2943 24.7395 40.375 24.5612 40.4236C24.3489 40.4825 24.1269 40.5105 23.9041 40.5065L23.2443 40.497ZM23.2443 40.1133H23.9041C24.0475 40.1149 24.1901 40.0965 24.3267 40.0588C24.4394 40.0258 24.5433 39.9735 24.6321 39.9048C24.714 39.8393 24.7775 39.7582 24.8175 39.6679C24.8621 39.5724 24.8844 39.4702 24.8829 39.3671C24.8893 39.2678 24.8706 39.1684 24.8282 39.0759C24.7859 38.9835 24.7208 38.9002 24.6376 38.8318C24.4293 38.6905 24.1676 38.622 23.9041 38.6399H23.2443V40.1133Z" fill="#AFB1B8"/>
<path d="M30.5731 41.8425H30.1423C30.0991 41.844 30.0566 41.8322 30.0223 41.8093C29.9914 41.787 29.9671 41.7586 29.9514 41.7264L29.5806 40.8617H27.7185L27.334 41.7264C27.3199 41.758 27.2964 41.7858 27.2659 41.807C27.2312 41.8312 27.1877 41.8438 27.1432 41.8425H26.7124L28.3483 38.2629H28.9154L30.5731 41.8425ZM27.8739 40.5135H29.4116L28.7627 39.0566C28.7131 38.947 28.6721 38.8346 28.64 38.7202L28.5773 38.9073C28.5582 38.9642 28.5364 39.0163 28.5173 39.0589L27.8739 40.5135Z" fill="#AFB1B8"/>
<path d="M32.9288 38.2796C32.9614 38.2951 32.9894 38.317 33.0106 38.3436L35.3962 41.0418C35.3962 40.9992 35.3962 40.9565 35.3962 40.9163C35.3962 40.876 35.3962 40.8357 35.3962 40.7978V38.263H35.8843V41.8425H35.6116C35.5729 41.8436 35.5345 41.8362 35.4998 41.8212C35.4662 41.8041 35.4365 41.7816 35.4126 41.7549L33.0297 39.059C33.0323 39.1 33.0323 39.1411 33.0297 39.1822C33.0297 39.2224 33.0297 39.258 33.0297 39.2912V41.8425H32.5416V38.263H32.8306C32.8644 38.2622 32.8979 38.2679 32.9288 38.2796V38.2796Z" fill="#AFB1B8"/>
<path d="M39.9031 40.4188V41.8402H39.3578V40.4188L37.85 38.2631H38.3381C38.3801 38.2609 38.4217 38.2718 38.4553 38.2938C38.485 38.3168 38.5099 38.3441 38.5289 38.3744L39.4723 39.765C39.5105 39.8242 39.5432 39.8787 39.5705 39.9308C39.5977 39.9829 39.6195 40.0327 39.6386 40.0824L39.7095 39.9284C39.736 39.8721 39.7669 39.8175 39.8022 39.765L40.7319 38.3649C40.7515 38.337 40.7753 38.3115 40.8028 38.2891C40.8352 38.2646 40.8772 38.2518 40.9201 38.2536H41.4136L39.9031 40.4188Z" fill="#AFB1B8"/>
<path d="M17.7314 32.256C17.9686 32.2821 18.2085 32.3034 18.4512 32.3223C22.13 30.8925 25.2422 28.5522 27.3986 25.5941C29.5551 22.6359 30.6602 19.1911 30.5758 15.6903L26.5216 12.1677C27.3459 15.895 26.9603 19.7481 25.4079 23.2958C23.8555 26.8435 21.1975 29.946 17.7314 32.256V32.256Z" fill="#AFB1B8"/>
<path d="M16.2837 32.0922L16.3928 32.1111C20.0966 29.8093 22.9205 26.5949 24.4993 22.8837C26.078 19.1726 26.3389 15.1352 25.2483 11.2938L19.4737 6.27661C21.8094 10.4006 22.7495 15.016 22.1848 19.586C21.6201 24.1561 19.5737 28.4929 16.2837 32.0922V32.0922Z" fill="#AFB1B8"/>
<path d="M35.8679 19.8267C34.8868 23.6732 32.5041 27.1424 29.0735 29.719C28.0716 30.4756 26.9909 31.1497 25.8454 31.7325C28.6389 31.0191 31.2065 29.7579 33.3502 28.0461C35.494 26.3342 37.1566 24.2175 38.21 21.8591L35.8679 19.8267Z" fill="#AFB1B8"/>
<path d="M34.9491 19.2602L31.6146 16.363C31.5509 19.6661 30.4701 22.8941 28.4846 25.7115C26.4991 28.5289 23.6814 30.8328 20.3243 32.3838H20.3406C21.0888 32.3836 21.8362 32.3448 22.5791 32.2678C25.7165 31.1552 28.488 29.385 30.6465 27.1153C32.8049 24.8456 34.2831 22.147 34.9491 19.2602V19.2602Z" fill="#AFB1B8"/>
<path d="M16.7663 4.16091L12.7883 0.699951C9.23222 1.89391 6.1738 3.99283 4.01337 6.72203C1.85294 9.45122 0.69115 12.6835 0.680054 15.9959H0.680054C0.693382 19.656 2.11126 23.2077 4.70929 26.0888C7.30731 28.9699 10.9371 31.016 15.0241 31.903C18.6725 28.041 20.8086 23.2687 21.1219 18.2798C21.4352 13.2908 19.9094 8.34495 16.7663 4.16091V4.16091Z" fill="#AFB1B8"/>
<path d="M44.14 18.7272C44.1257 14.3847 42.1338 10.2237 38.5997 7.15306C35.0655 4.08245 30.2763 2.35186 25.2783 2.33936V2.33936C22.9688 2.33729 20.6789 2.70757 18.5248 3.43141L42.8804 24.5925C43.7144 22.722 44.1415 20.7332 44.14 18.7272V18.7272Z" fill="#AFB1B8"/>
</svg>
