<svg width="94" height="45" viewBox="0 0 94 45" fill="none" xmlns="http://www.w3.org/2000/svg">
<path d="M47.425 21.4081C46.9819 20.8183 46.7699 20.1212 46.8203 19.4195V16.5363C46.8203 15.6525 47.0207 14.9808 47.4216 14.5213C47.8224 14.0618 48.511 13.833 49.4871 13.835C50.4044 13.835 51.0555 14.0305 51.4405 14.4216C51.8605 14.9206 52.0648 15.5307 52.018 16.1462V16.8238H50.3772V16.1374C50.383 15.9128 50.3671 15.6881 50.3296 15.4657C50.306 15.3137 50.2234 15.1731 50.0952 15.0669C49.9267 14.9523 49.7145 14.8968 49.5007 14.9114C49.2759 14.8969 49.0529 14.9555 48.8756 15.0757C48.7327 15.1933 48.6374 15.3476 48.6038 15.5156C48.5567 15.7509 48.5351 15.9896 48.5393 16.2283V19.7275C48.5134 20.065 48.5858 20.4028 48.7499 20.71C48.8315 20.814 48.9448 20.8964 49.0774 20.9482C49.2099 20.9999 49.3564 21.019 49.5007 21.0034C49.7109 21.0183 49.9195 20.9614 50.0816 20.845C50.2153 20.7304 50.3013 20.5809 50.3262 20.4197C50.3645 20.1875 50.3816 19.9531 50.3772 19.7187V19.0089H52.018V19.6571C52.0641 20.2986 51.8648 20.9355 51.4507 21.4697C51.0736 21.8979 50.4315 22.112 49.4871 22.112C48.5427 22.112 47.8292 21.8833 47.425 21.4081Z" fill="#AFB1B8"/>
<path d="M54.2569 21.4374C53.8424 20.9887 53.6352 20.3346 53.6352 19.4694V16.4366C53.6352 15.5801 53.8424 14.9319 54.2569 14.492C54.6713 14.052 55.3644 13.833 56.3359 13.835C57.3007 13.835 57.9904 14.054 58.4048 14.492C58.8193 14.9319 59.0299 15.5801 59.0299 16.4366V19.4694C59.0299 20.3258 58.8193 20.9828 58.398 21.4345C57.9768 21.8862 57.2906 22.112 56.3359 22.112C55.3813 22.112 54.6747 21.8833 54.2569 21.4374ZM57.1003 20.71C57.2487 20.4289 57.3163 20.121 57.2974 19.8125V16.0993C57.3164 15.7968 57.2499 15.4948 57.1037 15.2194C57.0205 15.1132 56.9043 15.0295 56.7686 14.9776C56.6328 14.9257 56.4829 14.9079 56.3359 14.9261C56.1885 14.9083 56.0383 14.9264 55.9021 14.9782C55.7659 15.03 55.6491 15.1135 55.5648 15.2194C55.4154 15.494 55.3477 15.7964 55.3678 16.0993V19.8301C55.3471 20.1387 55.4148 20.447 55.5648 20.7276C55.6604 20.8223 55.7785 20.8981 55.9109 20.95C56.0433 21.002 56.1871 21.0289 56.3326 21.0289C56.478 21.0289 56.6218 21.002 56.7542 20.95C56.8866 20.8981 57.0047 20.8223 57.1003 20.7276V20.71Z" fill="#AFB1B8"/>
<path d="M61.0035 13.9236H62.7701L64.0984 19.5192L65.4573 13.9236H67.1763L67.3496 22.0003H66.079L65.9431 16.3871L64.6318 22.0003H63.6126L62.2537 16.3665L62.128 22.0003H60.8439L61.0035 13.9236Z" fill="#AFB1B8"/>
<path d="M69.3302 13.9236H72.0819C73.6673 13.9236 74.4599 14.688 74.4599 16.217C74.4599 17.6814 73.6254 18.4126 71.9562 18.4106H71.0186V22.0003H69.32L69.3302 13.9236ZM71.6811 17.3754C71.8489 17.3938 72.0193 17.3805 72.1806 17.3364C72.3419 17.2924 72.4902 17.2186 72.6153 17.1203C72.8101 16.8475 72.896 16.5271 72.8599 16.2082C72.8688 15.9618 72.8414 15.7154 72.7783 15.475C72.7541 15.3947 72.7116 15.3194 72.6533 15.2534C72.5949 15.1874 72.522 15.1322 72.4386 15.0908C72.2028 14.9932 71.9422 14.9488 71.6811 14.9618H71.022V17.3754H71.6811Z" fill="#AFB1B8"/>
<path d="M76.9094 13.9236H78.7337L80.6055 22.0003H79.0225L78.6522 20.138H77.0249L76.6444 22.0003H75.0376L76.9094 13.9236ZM78.4687 19.2025L77.8334 15.8123L77.1982 19.2025H78.4687Z" fill="#AFB1B8"/>
<path d="M82.1173 13.9236H83.3063L85.5825 18.5309V13.9236H86.9923V22.0003H85.861L83.5713 17.1906V22.0003H82.1139L82.1173 13.9236Z" fill="#AFB1B8"/>
<path d="M90.2945 18.9207L88.4022 13.9348H89.9955L91.1506 17.1375L92.2343 13.9348H93.7936L91.9251 18.9207V22.0002H90.2945V18.9207Z" fill="#AFB1B8"/>
<path d="M50.0477 25.5315V25.9538H48.6617V29.2358H48.0807V25.9538H46.6879V25.5315H50.0477Z" fill="#AFB1B8"/>
<path d="M54.3927 29.2361H53.9442C53.8987 29.2385 53.8538 29.2259 53.8185 29.2009C53.7846 29.1794 53.7587 29.1498 53.7438 29.1158L53.3429 28.236H51.4201L51.0192 29.1158C51.0078 29.1526 50.9869 29.1867 50.958 29.2155C50.9225 29.2401 50.8778 29.2526 50.8324 29.2507H50.3839L52.0825 25.5466H52.6737L54.3927 29.2361ZM51.5797 27.8606H53.1833L52.5038 26.3531C52.4537 26.2391 52.4117 26.1226 52.3781 26.0041C52.3543 26.0745 52.3339 26.142 52.3136 26.2006L52.2524 26.3561L51.5797 27.8606Z" fill="#AFB1B8"/>
<path d="M57.3211 28.8724C57.4275 28.8772 57.5341 28.8772 57.6404 28.8724C57.7323 28.8642 57.8232 28.8495 57.9122 28.8284C57.9954 28.8107 58.0772 28.7882 58.1568 28.7609C58.2316 28.7345 58.3063 28.7022 58.3844 28.67V27.8369H57.705C57.6882 27.8378 57.6714 27.8356 57.6556 27.8305C57.6398 27.8255 57.6254 27.8177 57.6133 27.8076C57.6021 27.7993 57.5933 27.7889 57.5874 27.7772C57.5815 27.7655 57.5787 27.7529 57.5793 27.7401V27.4556H58.8974V28.8753C58.7898 28.9417 58.6762 29.0006 58.5577 29.0513C58.4366 29.1029 58.3104 29.1451 58.1806 29.1774C58.0417 29.2127 57.8996 29.2382 57.7559 29.2537C57.5912 29.2695 57.4257 29.2773 57.26 29.2771C56.967 29.2793 56.6763 29.2325 56.4038 29.1393C56.1495 29.051 55.9184 28.9193 55.7244 28.7521C55.5353 28.5832 55.3864 28.3839 55.2862 28.1655C55.1791 27.9199 55.1261 27.6593 55.1299 27.397C55.1263 27.133 55.1781 26.8706 55.2828 26.6226C55.3805 26.4031 55.5297 26.2033 55.721 26.036C55.9149 25.8693 56.1461 25.7386 56.4005 25.6517C56.6914 25.5572 57.0001 25.5105 57.3109 25.5138C57.4691 25.5137 57.627 25.5245 57.7831 25.5461C57.9212 25.5655 58.0567 25.597 58.1874 25.64C58.3062 25.6785 58.4201 25.7277 58.5271 25.7866C58.6312 25.8445 58.7301 25.9092 58.8227 25.9802L58.6596 26.209C58.6468 26.2299 58.6278 26.2475 58.6045 26.2598C58.5812 26.2722 58.5545 26.279 58.5271 26.2794C58.4895 26.2784 58.453 26.2682 58.4218 26.2501C58.3708 26.2266 58.3165 26.1973 58.2553 26.1621C58.1831 26.123 58.1069 26.0896 58.0277 26.0624C57.9265 26.0273 57.8219 25.9998 57.7152 25.9802C57.5729 25.9576 57.4284 25.9468 57.2837 25.948C57.0596 25.9458 56.8371 25.9807 56.6281 26.0506C56.439 26.1161 56.2686 26.2162 56.1287 26.3439C55.9879 26.4771 55.8803 26.6339 55.8127 26.8045C55.661 27.2056 55.661 27.6381 55.8127 28.0393C55.8871 28.2135 56.0028 28.3724 56.1525 28.5057C56.2918 28.6328 56.4609 28.7328 56.6485 28.799C56.8645 28.8631 57.0934 28.888 57.3211 28.8724V28.8724Z" fill="#AFB1B8"/>
<path d="M62.7362 28.8134H64.5911V29.2358H62.1689V25.5315H62.7498L62.7362 28.8134Z" fill="#AFB1B8"/>
<path d="M66.5208 29.2358H65.9398V25.5315H66.5208V29.2358Z" fill="#AFB1B8"/>
<path d="M68.6814 25.5491C68.7159 25.5661 68.746 25.5891 68.7697 25.6166L71.253 28.4089C71.2497 28.3649 71.2497 28.3209 71.253 28.2769C71.253 28.2358 71.253 28.1948 71.253 28.1566V25.5168H71.7592V29.236H71.4671C71.4238 29.2391 71.3804 29.232 71.3414 29.2155C71.3061 29.197 71.275 29.1732 71.2496 29.1451L68.7697 26.3557C68.7697 26.3997 68.7697 26.4408 68.7697 26.4818C68.7697 26.5229 68.7697 26.561 68.7697 26.5962V29.236H68.2839V25.5315H68.5863C68.6191 25.5316 68.6515 25.5376 68.6814 25.5491V25.5491Z" fill="#AFB1B8"/>
<path d="M76.0364 25.5315V25.9392H73.9777V27.1622H75.6457V27.5553H73.9777V28.8194H76.0364V29.2271H73.3798V25.5315H76.0364Z" fill="#AFB1B8"/>
<path d="M15.1617 2.65538L40.9568 8.9787V31.1367L15.1617 24.8163V2.65538ZM13.5073 0.766602V25.8927L42.6079 33.0284V7.90526L13.5073 0.766602Z" fill="#AFB1B8"/>
<path d="M29.1039 44.6921L0 37.5504V12.427L29.1039 19.5657V44.6921Z" fill="#AFB1B8"/>
<path d="M13.9897 2.37086L39.4484 8.61488L28.6215 17.9648L3.15941 11.7178L13.9897 2.37086ZM13.5073 0.766602L0 12.4276L29.1039 19.5661L42.6078 7.90513L13.5073 0.766602Z" fill="#AFB1B8"/>
<path d="M30.7414 43.2786L42.6078 33.0314L30.7414 30.1191V43.2786Z" fill="#AFB1B8"/>
</svg>
