<svg width="85" height="42" viewBox="0 0 85 42" fill="none" xmlns="http://www.w3.org/2000/svg">
<path d="M13.1462 13.1028H13.1433C10.7453 13.1028 8.80127 14.8304 8.80127 16.9615V16.964C8.80127 19.0951 10.7453 20.8227 13.1433 20.8227H13.1462C15.5442 20.8227 17.4882 19.0951 17.4882 16.964V16.9615C17.4882 14.8304 15.5442 13.1028 13.1462 13.1028Z" fill="#2196F3"/>
<path d="M45.195 11.8693C45.1882 8.90929 43.8623 6.07223 41.5074 3.97895C39.1525 1.88568 35.9604 0.706672 32.6297 0.699951V0.699951C29.298 0.705328 26.1045 1.88374 23.7484 3.97716C21.3922 6.07058 20.0655 8.90841 20.0587 11.8693V11.8693V28.1921C20.0587 28.1921 45.1922 25.7044 45.195 11.8718V11.8693Z" fill="#2196F3"/>
<path d="M0 33.5495C0.00604098 35.6091 0.929149 37.5828 2.56761 39.0394C4.20607 40.496 6.42668 41.317 8.74418 41.3231V41.3231C11.0612 41.317 13.2814 40.4963 14.9197 39.0403C16.5581 37.5843 17.4816 35.6112 17.4884 33.552V33.552V22.1943C17.4884 22.1943 0 23.9266 0 33.5495ZM8.74418 35.5844C8.2913 35.5844 7.84859 35.4651 7.47204 35.2415C7.09548 35.0179 6.80199 34.7001 6.62868 34.3282C6.45537 33.9564 6.41002 33.5472 6.49838 33.1525C6.58673 32.7577 6.80481 32.3951 7.12505 32.1105C7.44528 31.8259 7.85328 31.6321 8.29746 31.5536C8.74164 31.4751 9.20204 31.5154 9.62045 31.6694C10.0389 31.8234 10.3965 32.0843 10.6481 32.4189C10.8997 32.7535 11.034 33.147 11.034 33.5495C11.0351 33.8173 10.9767 34.0828 10.8622 34.3306C10.7476 34.5783 10.5791 34.8036 10.3664 34.9933C10.1536 35.1831 9.90081 35.3337 9.62244 35.4364C9.34407 35.5392 9.04561 35.5921 8.74418 35.5921V35.5844Z" fill="#2196F3"/>
<path d="M26.4177 34.4636H24.7302V36.2068H23.8513V31.9412H26.6286V32.6531H24.7302V33.7546H26.4177V34.4636ZM30.6423 34.1707C30.6423 34.5906 30.5681 34.9587 30.4196 35.2751C30.2712 35.5916 30.0583 35.8357 29.7809 36.0076C29.5056 36.1794 29.1891 36.2654 28.8317 36.2654C28.4782 36.2654 28.1628 36.1804 27.8854 36.0105C27.6081 35.8406 27.3932 35.5984 27.2409 35.2839C27.0886 34.9675 27.0114 34.6042 27.0095 34.1941V33.9832C27.0095 33.5632 27.0847 33.1941 27.235 32.8757C27.3874 32.5554 27.6013 32.3103 27.8766 32.1404C28.154 31.9685 28.4704 31.8826 28.8259 31.8826C29.1813 31.8826 29.4968 31.9685 29.7722 32.1404C30.0495 32.3103 30.2634 32.5554 30.4138 32.8757C30.5661 33.1941 30.6423 33.5623 30.6423 33.9802V34.1707ZM29.7516 33.9773C29.7516 33.53 29.6716 33.1902 29.5114 32.9578C29.3513 32.7253 29.1227 32.6091 28.8259 32.6091C28.5309 32.6091 28.3034 32.7244 28.1432 32.9548C27.9831 33.1833 27.902 33.5193 27.9001 33.9626V34.1707C27.9001 34.6062 27.9802 34.9441 28.1403 35.1843C28.3005 35.4246 28.5309 35.5447 28.8317 35.5447C29.1266 35.5447 29.3532 35.4294 29.5114 35.199C29.6696 34.9666 29.7497 34.6287 29.7516 34.1853V33.9773ZM33.4929 35.0876C33.4929 34.9216 33.4343 34.7947 33.3171 34.7068C33.1999 34.6169 32.989 34.5232 32.6843 34.4255C32.3796 34.3259 32.1384 34.2283 31.9606 34.1326C31.4763 33.8708 31.2341 33.5183 31.2341 33.075C31.2341 32.8445 31.2985 32.6394 31.4274 32.4597C31.5583 32.2781 31.7448 32.1365 31.987 32.0349C32.2311 31.9333 32.5046 31.8826 32.8073 31.8826C33.112 31.8826 33.3835 31.9382 33.6218 32.0496C33.86 32.1589 34.0446 32.3142 34.1755 32.5154C34.3083 32.7166 34.3747 32.9451 34.3747 33.2009H33.4958C33.4958 33.0056 33.4343 32.8542 33.3112 32.7468C33.1882 32.6375 33.0153 32.5828 32.7927 32.5828C32.5778 32.5828 32.4108 32.6287 32.2917 32.7205C32.1725 32.8103 32.113 32.9294 32.113 33.0779C32.113 33.2166 32.1823 33.3328 32.321 33.4265C32.4616 33.5203 32.6677 33.6082 32.9391 33.6902C33.4391 33.8406 33.8034 34.0271 34.0319 34.2498C34.2604 34.4724 34.3747 34.7498 34.3747 35.0818C34.3747 35.4509 34.235 35.741 33.9557 35.9519C33.6765 36.1609 33.3005 36.2654 32.8278 36.2654C32.4997 36.2654 32.2009 36.2058 31.9313 36.0867C31.6618 35.9656 31.4557 35.8005 31.3132 35.5916C31.1725 35.3826 31.1022 35.1404 31.1022 34.865H31.9841C31.9841 35.3357 32.2653 35.571 32.8278 35.571C33.0368 35.571 33.1999 35.5291 33.3171 35.4451C33.4343 35.3591 33.4929 35.24 33.4929 35.0876ZM38.1833 32.6531H36.8766V36.2068H35.9977V32.6531H34.7087V31.9412H38.1833V32.6531ZM41.2536 34.3582H39.5661V35.5007H41.5466V36.2068H38.6872V31.9412H41.5407V32.6531H39.5661V33.6697H41.2536V34.3582ZM43.6413 34.6453H42.9411V36.2068H42.0622V31.9412H43.6472C44.1511 31.9412 44.5397 32.0535 44.8132 32.2781C45.0866 32.5027 45.2233 32.8201 45.2233 33.2302C45.2233 33.5212 45.1599 33.7644 45.0329 33.9597C44.9079 34.1531 44.7175 34.3074 44.4616 34.4226L45.3845 36.1658V36.2068H44.4411L43.6413 34.6453ZM42.9411 33.9333H43.6501C43.8708 33.9333 44.0417 33.8777 44.1628 33.7664C44.2839 33.6531 44.3444 33.4978 44.3444 33.3005C44.3444 33.0994 44.2868 32.9412 44.1716 32.8259C44.0583 32.7107 43.8835 32.6531 43.6472 32.6531H42.9411V33.9333ZM48.2673 34.7039V36.2068H47.3884V31.9412H49.0524C49.3727 31.9412 49.654 31.9998 49.8962 32.1169C50.1403 32.2341 50.3278 32.4011 50.4587 32.6179C50.5895 32.8328 50.655 33.0779 50.655 33.3533C50.655 33.7712 50.5114 34.1013 50.2243 34.3435C49.9391 34.5837 49.5436 34.7039 49.0378 34.7039H48.2673ZM48.2673 33.9919H49.0524C49.2849 33.9919 49.4616 33.9373 49.5827 33.8279C49.7057 33.7185 49.7673 33.5623 49.7673 33.3591C49.7673 33.1501 49.7057 32.9812 49.5827 32.8523C49.4597 32.7234 49.2897 32.657 49.0729 32.6531H48.2673V33.9919ZM53.8278 34.3582H52.1403V35.5007H54.1208V36.2068H51.2614V31.9412H54.1149V32.6531H52.1403V33.6697H53.8278V34.3582ZM57.9059 32.6531H56.5993V36.2068H55.7204V32.6531H54.4313V31.9412H57.9059V32.6531ZM60.9763 34.3582H59.2888V35.5007H61.2692V36.2068H58.4099V31.9412H61.2634V32.6531H59.2888V33.6697H60.9763V34.3582ZM63.364 34.6453H62.6638V36.2068H61.7849V31.9412H63.3698C63.8737 31.9412 64.2624 32.0535 64.5358 32.2781C64.8093 32.5027 64.946 32.8201 64.946 33.2302C64.946 33.5212 64.8825 33.7644 64.7556 33.9597C64.6306 34.1531 64.4401 34.3074 64.1843 34.4226L65.1071 36.1658V36.2068H64.1638L63.364 34.6453ZM62.6638 33.9333H63.3727C63.5934 33.9333 63.7643 33.8777 63.8854 33.7664C64.0065 33.6531 64.0671 33.4978 64.0671 33.3005C64.0671 33.0994 64.0095 32.9412 63.8942 32.8259C63.7809 32.7107 63.6061 32.6531 63.3698 32.6531H62.6638V33.9333ZM67.8288 35.0876C67.8288 34.9216 67.7702 34.7947 67.653 34.7068C67.5358 34.6169 67.3249 34.5232 67.0202 34.4255C66.7155 34.3259 66.4743 34.2283 66.2966 34.1326C65.8122 33.8708 65.57 33.5183 65.57 33.075C65.57 32.8445 65.6345 32.6394 65.7634 32.4597C65.8942 32.2781 66.0807 32.1365 66.3229 32.0349C66.5671 31.9333 66.8405 31.8826 67.1432 31.8826C67.4479 31.8826 67.7194 31.9382 67.9577 32.0496C68.196 32.1589 68.3806 32.3142 68.5114 32.5154C68.6442 32.7166 68.7106 32.9451 68.7106 33.2009H67.8317C67.8317 33.0056 67.7702 32.8542 67.6472 32.7468C67.5241 32.6375 67.3513 32.5828 67.1286 32.5828C66.9138 32.5828 66.7468 32.6287 66.6276 32.7205C66.5085 32.8103 66.4489 32.9294 66.4489 33.0779C66.4489 33.2166 66.5182 33.3328 66.6569 33.4265C66.7975 33.5203 67.0036 33.6082 67.2751 33.6902C67.7751 33.8406 68.1393 34.0271 68.3679 34.2498C68.5964 34.4724 68.7106 34.7498 68.7106 35.0818C68.7106 35.4509 68.571 35.741 68.2917 35.9519C68.0124 36.1609 67.6364 36.2654 67.1638 36.2654C66.8356 36.2654 66.5368 36.2058 66.2673 36.0867C65.9977 35.9656 65.7917 35.8005 65.6491 35.5916C65.5085 35.3826 65.4382 35.1404 65.4382 34.865H66.32C66.32 35.3357 66.6013 35.571 67.1638 35.571C67.3727 35.571 67.5358 35.5291 67.653 35.4451C67.7702 35.3591 67.8288 35.24 67.8288 35.0876Z" fill="#2196F3"/>
</svg>
